<?xml version="1.0" standalone="no"?>
<!DOCTYPE svg PUBLIC "-//W3C//DTD SVG 1.0//EN" "http://www.w3.org/TR/2001/REC-SVG-20010904/DTD/svg10.dtd">
<svg xmlns="http://www.w3.org/2000/svg" xmlns:xlink="http://www.w3.org/1999/xlink" id="body_1" width="144" height="144">

<g transform="matrix(2.25 0 0 2.25 0 0)">
	<g transform="matrix(0.97557247 0 0 0.969525 -115.7501 -42.141792)">
	</g>
    <path transform="matrix(0.97557247 0 0 0.969525 -115.7501 -42.141792)"  d="M179.076 94.886C 175.50801 94.786 172.74 95.154 170.42 96.136C 169.752 96.406 168.68 96.406 168.592 97.252C 168.94899 97.607 168.99199 98.187996 169.305 98.68C 169.84 99.573 170.778 100.776 171.625 101.4L171.625 101.4L174.48 103.453C 176.22 104.523 178.183 105.148 179.87799 106.219C 180.85999 106.844 181.84099 107.647 182.823 108.317C 183.323 108.674 183.62599 109.255005 184.25099 109.477005L184.25099 109.477005L184.25099 109.342C 183.939 108.942 183.849 108.362 183.538 107.914L183.538 107.914L182.198 106.621C 180.905 104.881004 179.298 103.363 177.558 102.115005C 176.13 101.133 173.008 99.795006 172.428 98.145004L172.428 98.145004L172.34 98.045006C 173.31999 97.94501 174.48 97.59801 175.418 97.33001C 176.936 96.93001 178.318 97.01801 179.878 96.61701L179.878 96.61701L182.02101 95.99201L182.02101 95.59201C 181.21802 94.78901 180.63802 93.71801 179.79102 92.96001C 177.51602 90.99701 175.01602 89.078 172.42801 87.47201C 171.04501 86.58001 169.26001 85.99901 167.78801 85.242004C 167.251 84.97401 166.36002 84.840004 166.048 84.394005C 165.24301 83.414 164.798 82.119 164.218 80.95801L164.218 80.95801L160.56 73.19501C 159.757 71.45501 159.265 69.715004 158.285 68.10901C 153.68901 60.52401 148.69101 55.92901 141.017 51.42201C 139.367 50.48501 137.40399 50.08201 135.317 49.592007L135.317 49.592007L131.97101 49.412006C 131.25601 49.100006 130.54301 48.252007 129.91801 47.850006C 127.375015 46.244007 120.81602 42.764008 118.94102 47.350006C 117.736015 50.250008 120.72602 53.105007 121.74102 54.578007C 122.50102 55.604008 123.48102 56.764008 124.01802 57.924007C 124.31802 58.682007 124.41802 59.486008 124.73102 60.28901C 125.444016 62.25201 126.11402 64.43901 127.05102 66.26901C 127.55102 67.20601 128.07602 68.18901 128.70102 69.03601C 129.05801 69.53601 129.68301 69.75001 129.81602 70.55301C 129.19102 71.44601 129.14803 72.78301 128.79103 73.90001C 127.18403 78.94201 127.80903 85.18801 130.08403 88.90001C 130.79903 90.01501 132.48402 92.47001 134.77003 91.53201C 136.77803 90.72901 136.33003 88.18601 136.91003 85.95501C 137.04503 85.420006 136.95503 85.06301 137.22203 84.70501L137.22203 84.70501L137.22203 84.80501L139.05203 88.50801C 140.43503 90.69401 142.84503 92.97001 144.85204 94.488014C 145.92204 95.291016 146.77003 96.67501 148.10803 97.165016L148.10803 97.165016L148.10803 97.030014L148.02003 97.030014C 147.75203 96.63001 147.35004 96.45001 146.99304 96.138016C 146.19005 95.335014 145.29803 94.35301 144.67303 93.46101C 142.80003 90.96301 141.15004 88.196014 139.67703 85.34101C 138.96204 83.95801 138.33704 82.44101 137.75903 81.058014C 137.48903 80.52201 137.48903 79.71802 137.04404 79.45201C 136.37404 80.432014 135.39404 81.28201 134.90103 82.48601C 134.05302 84.40401 133.96503 86.769005 133.65303 89.22301C 133.47304 89.268005 133.55302 89.22301 133.47304 89.323006C 132.04704 88.967 131.55504 87.493004 131.02003 86.245C 129.68204 83.077 129.45804 77.991005 130.61804 74.332C 130.93004 73.395004 132.27003 70.45 131.73505 69.558C 131.46504 68.71 130.57504 68.22 130.08305 67.549995C 129.50305 66.701996 128.88005 65.631996 128.47806 64.69499C 127.40806 62.194992 126.873055 59.429993 125.71206 56.930992C 125.17506 55.770992 124.23906 54.56599 123.48006 53.49599C 122.63206 52.29099 121.69706 51.44299 121.027054 50.01599C 120.804054 49.51599 120.49205 48.721992 120.84905 48.18599C 120.93705 47.82899 121.11705 47.68599 121.47205 47.605988C 122.052055 47.105988 123.704056 47.739986 124.28405 48.00599C 125.93405 48.675987 127.31705 49.299988 128.70004 50.23599C 129.32504 50.681988 129.99504 51.529987 130.79805 51.75399L130.79805 51.75399L131.73605 51.75399C 133.16405 52.06599 134.76906 51.85399 136.10605 52.25399C 138.47105 53.01399 140.61205 54.12799 142.53204 55.333992C 148.37604 59.03699 153.19604 64.301994 156.45204 70.593994C 156.98705 71.619995 157.21004 72.55699 157.70204 73.62799C 158.64005 75.81499 159.80005 78.04499 160.73505 80.18799C 161.67305 82.28499 162.56505 84.427986 163.90305 86.16799C 164.57304 87.10499 167.24904 87.59499 168.45305 88.08599C 169.34605 88.48599 170.72804 88.84599 171.53305 89.33599C 173.04906 90.27299 174.56606 91.343994 175.99306 92.36999C 176.70605 92.903984 178.93806 94.01999 179.07106 94.90999L179.07106 94.90999L179.076 94.886zM133.576 56.114002C 132.95956 56.108547 132.34505 56.183514 131.748 56.337L131.748 56.337L131.748 56.437L131.836 56.437C 132.193 57.151 132.818 57.642002 133.26399 58.267002L133.26399 58.267002L134.29099 60.409L134.37898 60.309002C 135.00398 59.863003 135.31699 59.149002 135.31699 58.079002C 135.04898 57.767002 135.00499 57.454002 134.78198 57.142002C 134.51398 56.696003 133.93398 56.472004 133.57599 56.116z" stroke="none" fill="#00678C" fill-rule="nonzero" />
</g>
</svg>