<?xml version="1.0" standalone="no"?>
<!DOCTYPE svg PUBLIC "-//W3C//DTD SVG 1.0//EN" "http://www.w3.org/TR/2001/REC-SVG-20010904/DTD/svg10.dtd">
<svg xmlns="http://www.w3.org/2000/svg" xmlns:xlink="http://www.w3.org/1999/xlink" id="body_1" width="144" height="144">

<g transform="matrix(0.75 0 0 0.75 0 0)">
	<g transform="matrix(1.3333334 0 0 1.3333334 0 0)">
	</g>
    <path transform="matrix(1.3333334 0 0 1.3333334 0 0)"  d="M137.75 50.242188L118.25 50.242188L118.25 31.132812L85.03906 0L6.25 0L6.25 144L118.25 144L118.25 123.33203L137.75 123.33203L137.75 50.242188zM125.75 111.33203L41.75 111.33203L41.75 62.242188L125.75 62.242188z" stroke="none" fill="#000000" fill-rule="nonzero" />
	<g transform="matrix(1.3333334 0 0 1.3333334 0 0)">
	</g>
    <path transform="matrix(1.3333334 0 0 1.3333334 0 0)"  d="M59.867188 94.03906C 58.86328 94.03906 57.882812 93.91406 56.92578 93.66797C 55.96875 93.42578 55.097656 93.125 54.3125 92.76953C 53.527344 92.41406 52.84375 92.05469 52.26953 91.69922C 51.691406 91.34375 51.29297 91.05469 51.07422 90.83594L51.07422 90.83594L48.828125 95.21484C 50.347656 96.29297 52.066406 97.12891 53.98047 97.71875C 55.89453 98.30469 57.83203 98.60156 59.79297 98.60156C 61.070312 98.60156 62.289062 98.45703 63.45703 98.17578C 64.62109 97.89453 65.65234 97.44922 66.546875 96.83594C 67.44141 96.22266 68.15625 95.41797 68.68359 94.421875C 69.21094 93.42969 69.47266 92.234375 69.47266 90.83594C 69.47266 89.63281 69.27734 88.62109 68.88281 87.80078C 68.49219 86.97656 67.93359 86.27344 67.21094 85.68359C 66.484375 85.09375 65.60156 84.60547 64.55859 84.21094C 63.51953 83.82031 62.359375 83.453125 61.08203 83.109375C 60.101562 82.86328 59.23828 82.62891 58.48828 82.41016C 57.73828 82.1875 57.121094 81.94141 56.628906 81.671875C 56.140625 81.40234 55.765625 81.08984 55.507812 80.734375C 55.25 80.37891 55.121094 79.92969 55.121094 79.390625C 55.121094 78.45703 55.464844 77.734375 56.152344 77.21875C 56.839844 76.703125 57.882812 76.44531 59.28125 76.44531C 60.0625 76.44531 60.835938 76.546875 61.597656 76.74219C 62.359375 76.9375 63.0625 77.17578 63.714844 77.45703C 64.36328 77.74219 64.91406 78.02734 65.37109 78.32422C 65.82422 78.61719 66.13672 78.85156 66.30859 79.02344L66.30859 79.02344L68.55469 74.90234C 67.39844 74.11719 66.05078 73.4375 64.50391 72.859375C 62.960938 72.28125 61.265625 71.99219 59.42578 71.99219C 58.101562 71.99219 56.86328 72.171875 55.710938 72.52734C 54.554688 72.88281 53.54297 73.40625 52.67578 74.08984C 51.804688 74.77734 51.121094 75.63672 50.632812 76.66797C 50.140625 77.69922 49.89453 78.875 49.89453 80.19922C 49.89453 81.20703 50.046875 82.07031 50.35547 82.79297C 50.664062 83.51953 51.121094 84.15625 51.734375 84.70703C 52.347656 85.26172 53.117188 85.73828 54.035156 86.14453C 54.95703 86.546875 56.04297 86.921875 57.29297 87.265625C 58.32422 87.55859 59.253906 87.83203 60.089844 88.07422C 60.921875 88.32031 61.63672 88.58984 62.222656 88.88672C 62.8125 89.17969 63.265625 89.52344 63.585938 89.91406C 63.902344 90.30859 64.0625 90.78516 64.0625 91.35156C 64.0625 93.140625 62.664062 94.03906 59.867188 94.03906z" stroke="none" fill="#000000" fill-rule="nonzero" />
	<g transform="matrix(1.3333334 0 0 1.3333334 0 0)">
	</g>
    <path transform="matrix(1.3333334 0 0 1.3333334 0 0)"  d="M75.23047 94.36719C 76.34766 95.59375 77.68359 96.58984 79.24219 97.34766C 80.80078 98.109375 82.53516 98.48828 84.44922 98.48828C 85.703125 98.48828 86.87891 98.32422 87.984375 97.99219C 89.08594 97.66016 90.11719 97.203125 91.07422 96.61328L91.07422 96.61328L92.58203 98.30469L97.36719 98.30469L93.796875 94.29297C 94.875 93.09375 95.71875 91.71875 96.31641 90.171875C 96.91797 88.62891 97.21875 87.00781 97.21875 85.31641C 97.21875 83.671875 96.91406 82.05469 96.30078 80.45703C 95.6875 78.86328 94.828125 77.44141 93.72266 76.1875C 92.62109 74.9375 91.28906 73.92578 89.73047 73.15234C 88.171875 72.37891 86.44922 71.99219 84.5625 71.99219C 82.71875 71.99219 81.015625 72.35547 79.44531 73.078125C 77.875 73.80469 76.51953 74.77734 75.37891 76.00391C 74.23828 77.23047 73.34375 78.640625 72.69141 80.23828C 72.04297 81.83203 71.71875 83.5 71.71875 85.24219C 71.71875 86.91016 72.02344 88.54297 72.63672 90.13672C 73.25 91.73047 74.11328 93.140625 75.23047 94.36719zM77.36719 82.05859C 77.69531 81.015625 78.17969 80.078125 78.82031 79.24219C 79.45703 78.41016 80.25391 77.74219 81.21094 77.23828C 82.16797 76.734375 83.25781 76.484375 84.48828 76.484375C 85.66406 76.484375 86.72656 76.73047 87.671875 77.21875C 88.61328 77.71094 89.41016 78.359375 90.0625 79.16797C 90.71094 79.98047 91.21484 80.91016 91.57031 81.96484C 91.92578 83.02344 92.10547 84.11328 92.10547 85.24219C 92.10547 86.19922 91.96875 87.14453 91.69922 88.07422C 91.42969 89.00781 91.046875 89.86719 90.55859 90.65234L90.55859 90.65234L88.75391 88.62891L83.97266 88.62891L87.94531 93.11719C 87.453125 93.38672 86.921875 93.60156 86.34375 93.76172C 85.76953 93.921875 85.14844 94 84.48828 94C 83.28516 94 82.21094 93.75391 81.265625 93.265625C 80.32031 92.77344 79.52344 92.125 78.875 91.3125C 78.22266 90.50391 77.72656 89.57031 77.38281 88.515625C 77.03906 87.46094 76.86719 86.37109 76.86719 85.24219C 76.87109 84.16406 77.03516 83.10156 77.36719 82.05859z" stroke="none" fill="#000000" fill-rule="nonzero" />
	<g transform="matrix(1.3333334 0 0 1.3333334 0 0)">
	</g>
    <path transform="matrix(1.3333334 0 0 1.3333334 0 0)"  d="M119.484375 93.85156L106.16016 93.85156L106.16016 72.17969L101.08203 72.17969L101.08203 98.30469L119.484375 98.30469L119.484375 93.85156z" stroke="none" fill="#000000" fill-rule="nonzero" />
</g>
</svg>